<svg width="20" height="20" viewBox="0 0 20 20" fill="none" xmlns="http://www.w3.org/2000/svg">
<path fill-rule="evenodd" clip-rule="evenodd" d="M17.1231 10.936C17.1591 10.636 17.1831 10.324 17.1831 10C17.1831 9.67602 17.1591 9.36402 17.1111 9.06402L19.1391 7.48002C19.3191 7.33602 19.3671 7.07202 19.2591 6.86802L17.3391 3.54402C17.2191 3.32802 16.9671 3.25602 16.7511 3.32802L14.3631 4.28802C13.8591 3.90402 13.3311 3.59202 12.7431 3.35202L12.3831 0.808024C12.3471 0.568024 12.1431 0.400024 11.9031 0.400024H8.06314C7.82314 0.400024 7.63114 0.568024 7.59514 0.808024L7.23514 3.35202C6.64714 3.59202 6.10714 3.91602 5.61514 4.28802L3.22714 3.32802C3.01114 3.24402 2.75914 3.32802 2.63914 3.54402L0.719139 6.86802C0.599139 7.08402 0.647139 7.33602 0.839139 7.48002L2.86714 9.06402C2.81914 9.36402 2.78314 9.68802 2.78314 10C2.78314 10.312 2.80714 10.636 2.85514 10.936L0.827139 12.52C0.647139 12.664 0.599139 12.928 0.707139 13.132L2.62714 16.456C2.74714 16.672 2.99914 16.744 3.21514 16.672L5.60314 15.712C6.10714 16.096 6.63514 16.408 7.22314 16.648L7.58314 19.192C7.63114 19.432 7.82314 19.6 8.06314 19.6H11.9031C12.1431 19.6 12.3471 19.432 12.3711 19.192L12.7311 16.648C13.3191 16.408 13.8591 16.084 14.3511 15.712L16.7391 16.672C16.9551 16.756 17.2071 16.672 17.3271 16.456L19.2471 13.132C19.3671 12.916 19.3191 12.664 19.1271 12.52L17.1231 10.936ZM9.98314 13.6C8.00314 13.6 6.38314 11.98 6.38314 10C6.38314 8.02002 8.00314 6.40002 9.98314 6.40002C11.9631 6.40002 13.5831 8.02002 13.5831 10C13.5831 11.98 11.9631 13.6 9.98314 13.6Z" fill="black" fill-opacity="0.87"/>
</svg>
